HIERARCHY
ROOT Hips
{
	OFFSET 0.053599 88.859886 3.107447
	CHANNELS 6 Xposition Yposition Zposition Zrotation Yrotation Xrotation 
	JOINT Spine
	{
		OFFSET -0.000000 8.814246 -2.080107
		CHANNELS 3 Zrotation Yrotation Xrotation
		JOINT Spine1
		{
			OFFSET 0.000000 8.844141 0.000000
			CHANNELS 3 Zrotation Yrotation Xrotation
			JOINT Spine2
			{
				OFFSET -0.000000 11.682268 0.000000
				CHANNELS 3 Zrotation Yrotation Xrotation
				JOINT Spine3
				{
					OFFSET 0.000000 11.746700 0.000000
					CHANNELS 3 Zrotation Yrotation Xrotation
					JOINT Neck
					{
						OFFSET -0.000000 17.658264 -0.000000
						CHANNELS 3 Zrotation Yrotation Xrotation
						JOINT Neck1
						{
							OFFSET -0.000000 5.101515 -0.000000
							CHANNELS 3 Zrotation Yrotation Xrotation
							JOINT Head
							{
								OFFSET 0.000000 5.101515 0.000000
								CHANNELS 3 Zrotation Yrotation Xrotation
								JOINT HeadEnd
								{
									OFFSET 0.000000 11.655085 0.000000
									CHANNELS 3 Zrotation Yrotation Xrotation
									End Site
									{
										OFFSET 0.000000 0.000000 0.000000
									}
								}
							}
						}
					}
					JOINT RightShoulder
					{
						OFFSET -2.625389 11.175210 0.000000
						CHANNELS 3 Zrotation Yrotation Xrotation
						JOINT RightArm
						{
							OFFSET -0.000000 10.434715 -0.000000
							CHANNELS 3 Zrotation Yrotation Xrotation
							JOINT RightForeArm
							{
								OFFSET -0.000000 29.628420 0.000000
								CHANNELS 3 Zrotation Yrotation Xrotation
								JOINT RightHand
								{
									OFFSET -0.000000 22.857611 0.000000
									CHANNELS 3 Zrotation Yrotation Xrotation
									JOINT RightHandThumb1
									{
										OFFSET -2.867323 3.959563 2.944291
										CHANNELS 3 Zrotation Yrotation Xrotation
										JOINT RightHandThumb2
										{
											OFFSET 0.000000 3.350399 0.000000
											CHANNELS 3 Zrotation Yrotation Xrotation
											JOINT RightHandThumb3
											{
												OFFSET 0.000000 3.756509 -0.000000
												CHANNELS 3 Zrotation Yrotation Xrotation
												JOINT RightHandThumb4
												{
													OFFSET 0.000000 3.147345 0.000000
													CHANNELS 3 Zrotation Yrotation Xrotation
													End Site
													{
														OFFSET 0.000000 0.000000 0.000000
													}
												}
											}
										}
									}
									JOINT RightHandIndex1
									{
										OFFSET -0.086752 10.030893 2.345280
										CHANNELS 3 Zrotation Yrotation Xrotation
										JOINT RightHandIndex2
										{
											OFFSET -0.000000 4.061090 0.000000
											CHANNELS 3 Zrotation Yrotation Xrotation
											JOINT RightHandIndex3
											{
												OFFSET -0.000000 3.248873 0.000000
												CHANNELS 3 Zrotation Yrotation Xrotation
												JOINT RightHandIndex4
												{
													OFFSET 0.000000 2.639709 -0.000000
													CHANNELS 3 Zrotation Yrotation Xrotation
													End Site
													{
														OFFSET 0.000000 0.000000 0.000000
													}
												}
											}
										}
									}
									JOINT RightHandMiddle1
									{
										OFFSET 0.104102 9.502952 0.006768
										CHANNELS 3 Zrotation Yrotation Xrotation
										JOINT RightHandMiddle2
										{
											OFFSET 0.000000 4.568727 0.000000
											CHANNELS 3 Zrotation Yrotation Xrotation
											JOINT RightHandMiddle3
											{
												OFFSET 0.000000 3.654981 -0.000000
												CHANNELS 3 Zrotation Yrotation Xrotation
												JOINT RightHandMiddle4
												{
													OFFSET -0.000000 2.741236 -0.000000
													CHANNELS 3 Zrotation Yrotation Xrotation
													End Site
													{
														OFFSET 0.000000 0.000000 0.000000
													}
												}
											}
										}
									}
									JOINT RightHandRing1
									{
										OFFSET 0.086752 8.921708 -2.267442
										CHANNELS 3 Zrotation Yrotation Xrotation
										JOINT RightHandRing2
										{
											OFFSET -0.000000 4.061090 0.000000
											CHANNELS 3 Zrotation Yrotation Xrotation
											JOINT RightHandRing3
											{
												OFFSET 0.000000 3.654981 -0.000000
												CHANNELS 3 Zrotation Yrotation Xrotation
												JOINT RightHandRing4
												{
													OFFSET 0.000000 2.741236 -0.000000
													CHANNELS 3 Zrotation Yrotation Xrotation
													End Site
													{
														OFFSET 0.000000 0.000000 0.000000
													}
												}
											}
										}
									}
									JOINT RightHandPinky1
									{
										OFFSET -0.173504 7.976997 -4.467199
										CHANNELS 3 Zrotation Yrotation Xrotation
										JOINT RightHandPinky2
										{
											OFFSET 0.000000 3.350399 -0.000000
											CHANNELS 3 Zrotation Yrotation Xrotation
											JOINT RightHandPinky3
											{
												OFFSET -0.000000 2.842763 0.000000
												CHANNELS 3 Zrotation Yrotation Xrotation
												JOINT RightHandPinky4
												{
													OFFSET -0.000000 2.639709 0.000000
													CHANNELS 3 Zrotation Yrotation Xrotation
													End Site
													{
														OFFSET 0.000000 0.000000 0.000000
													}
												}
											}
										}
									}
									JOINT RightForeArmEnd
									{
										OFFSET 0.000000 0.000000 0.000000
										CHANNELS 3 Zrotation Yrotation Xrotation
										End Site
										{
											OFFSET 0.000000 0.000000 0.000000
										}
									}
								}
								JOINT RightArmEnd
								{
									OFFSET 0.000000 0.000000 0.000000
									CHANNELS 3 Zrotation Yrotation Xrotation
									End Site
									{
										OFFSET 0.000000 0.000000 0.000000
									}
								}
							}
						}
					}
					JOINT LeftShoulder
					{
						OFFSET 2.625389 11.175210 0.000000
						CHANNELS 3 Zrotation Yrotation Xrotation
						JOINT LeftArm
						{
							OFFSET 0.000000 10.813635 -0.000000
							CHANNELS 3 Zrotation Yrotation Xrotation
							JOINT LeftForeArm
							{
								OFFSET 0.000000 28.724781 0.000000
								CHANNELS 3 Zrotation Yrotation Xrotation
								JOINT LeftHand
								{
									OFFSET 0.644384 25.716167 -0.328871
									CHANNELS 3 Zrotation Yrotation Xrotation
									JOINT LeftHandThumb1
									{
										OFFSET 2.867323 3.959563 2.944291
										CHANNELS 3 Zrotation Yrotation Xrotation
										JOINT LeftHandThumb2
										{
											OFFSET 0.000000 3.350399 0.000000
											CHANNELS 3 Zrotation Yrotation Xrotation
											JOINT LeftHandThumb3
											{
												OFFSET -0.000000 3.756509 0.000000
												CHANNELS 3 Zrotation Yrotation Xrotation
												JOINT LeftHandThumb4
												{
													OFFSET -0.000000 3.100000 0.000000
													CHANNELS 3 Zrotation Yrotation Xrotation
													End Site
													{
														OFFSET 0.000000 0.000000 0.000000
													}
												}
											}
										}
									}
									JOINT LeftHandIndex1
									{
										OFFSET 0.086752 10.030893 2.345280
										CHANNELS 3 Zrotation Yrotation Xrotation
										JOINT LeftHandIndex2
										{
											OFFSET -0.000000 4.061090 -0.000000
											CHANNELS 3 Zrotation Yrotation Xrotation
											JOINT LeftHandIndex3
											{
												OFFSET 0.000000 3.248873 -0.000000
												CHANNELS 3 Zrotation Yrotation Xrotation
												JOINT LeftHandIndex4
												{
													OFFSET 0.000000 2.639709 -0.000000
													CHANNELS 3 Zrotation Yrotation Xrotation
													End Site
													{
														OFFSET 0.000000 0.000000 0.000000
													}
												}
											}
										}
									}
									JOINT LeftHandMiddle1
									{
										OFFSET -0.104102 9.502952 0.006768
										CHANNELS 3 Zrotation Yrotation Xrotation
										JOINT LeftHandMiddle2
										{
											OFFSET -0.000000 4.568727 -0.000000
											CHANNELS 3 Zrotation Yrotation Xrotation
											JOINT LeftHandMiddle3
											{
												OFFSET 0.000000 3.654981 0.000000
												CHANNELS 3 Zrotation Yrotation Xrotation
												JOINT LeftHandMiddle4
												{
													OFFSET 0.000000 2.741236 -0.000000
													CHANNELS 3 Zrotation Yrotation Xrotation
													End Site
													{
														OFFSET 0.000000 0.000000 0.000000
													}
												}
											}
										}
									}
									JOINT LeftHandRing1
									{
										OFFSET -0.086752 8.921708 -2.267442
										CHANNELS 3 Zrotation Yrotation Xrotation
										JOINT LeftHandRing2
										{
											OFFSET 0.000000 4.061090 0.000000
											CHANNELS 3 Zrotation Yrotation Xrotation
											JOINT LeftHandRing3
											{
												OFFSET 0.000000 3.654981 0.000000
												CHANNELS 3 Zrotation Yrotation Xrotation
												JOINT LeftHandRing4
												{
													OFFSET 0.000000 2.741236 0.000000
													CHANNELS 3 Zrotation Yrotation Xrotation
													End Site
													{
														OFFSET 0.000000 0.000000 0.000000
													}
												}
											}
										}
									}
									JOINT LeftHandPinky1
									{
										OFFSET 0.173504 7.976997 -4.467199
										CHANNELS 3 Zrotation Yrotation Xrotation
										JOINT LeftHandPinky2
										{
											OFFSET -0.000000 3.350399 -0.000000
											CHANNELS 3 Zrotation Yrotation Xrotation
											JOINT LeftHandPinky3
											{
												OFFSET 0.000000 2.842763 0.000000
												CHANNELS 3 Zrotation Yrotation Xrotation
												JOINT LeftHandPinky4
												{
													OFFSET -0.000000 2.639709 -0.000000
													CHANNELS 3 Zrotation Yrotation Xrotation
													End Site
													{
														OFFSET 0.000000 0.000000 0.000000
													}
												}
											}
										}
									}
									JOINT LeftForeArmEnd
									{
										OFFSET 0.000000 0.000000 0.000000
										CHANNELS 3 Zrotation Yrotation Xrotation
										End Site
										{
											OFFSET 0.000000 0.000000 0.000000
										}
									}
								}
								JOINT LeftArmEnd
								{
									OFFSET 0.000000 0.000000 0.000000
									CHANNELS 3 Zrotation Yrotation Xrotation
									End Site
									{
										OFFSET 0.000000 0.000000 0.000000
									}
								}
							}
						}
					}
				}
			}
		}
	}
	JOINT RightUpLeg
	{
		OFFSET -11.289943 0.000000 0.000000
		CHANNELS 3 Zrotation Yrotation Xrotation
		JOINT RightLeg
		{
			OFFSET 0.000000 -38.200325 0.000000
			CHANNELS 3 Zrotation Yrotation Xrotation
			JOINT RightFoot
			{
				OFFSET -0.000000 -39.900856 -0.000000
				CHANNELS 3 Zrotation Yrotation Xrotation
				JOINT RightToeBase
				{
					OFFSET 0.000000 0.000000 15.261641
					CHANNELS 3 Zrotation Yrotation Xrotation
					JOINT RightToeBaseEnd
					{
						OFFSET 0.000000 0.000000 7.370709
						CHANNELS 3 Zrotation Yrotation Xrotation
						End Site
						{
							OFFSET 0.000000 0.000000 0.000000
						}
					}
				}
				JOINT RightLegEnd
				{
					OFFSET 0.000000 0.000000 0.000000
					CHANNELS 3 Zrotation Yrotation Xrotation
					End Site
					{
						OFFSET 0.000000 0.000000 0.000000
					}
				}
			}
			JOINT RightUpLegEnd
			{
				OFFSET 0.000000 0.000000 0.000000
				CHANNELS 3 Zrotation Yrotation Xrotation
				End Site
				{
					OFFSET 0.000000 0.000000 0.000000
				}
			}
		}
	}
	JOINT LeftUpLeg
	{
		OFFSET 11.315661 -0.000000 0.000000
		CHANNELS 3 Zrotation Yrotation Xrotation
		JOINT LeftLeg
		{
			OFFSET -0.000000 -38.200325 -0.000000
			CHANNELS 3 Zrotation Yrotation Xrotation
			JOINT LeftFoot
			{
				OFFSET 0.000000 -39.900856 -0.000000
				CHANNELS 3 Zrotation Yrotation Xrotation
				JOINT LeftToeBase
				{
					OFFSET -0.000000 -0.000000 15.261641
					CHANNELS 3 Zrotation Yrotation Xrotation
					JOINT LeftToeBaseEnd
					{
						OFFSET 0.000000 -0.000000 7.539996
						CHANNELS 3 Zrotation Yrotation Xrotation
						End Site
						{
							OFFSET 0.000000 0.000000 0.000000
						}
					}
				}
				JOINT LeftLegEnd
				{
					OFFSET 0.000000 0.000000 0.000000
					CHANNELS 3 Zrotation Yrotation Xrotation
					End Site
					{
						OFFSET 0.000000 0.000000 0.000000
					}
				}
			}
			JOINT LeftUpLegEnd
			{
				OFFSET 0.000000 0.000000 0.000000
				CHANNELS 3 Zrotation Yrotation Xrotation
				End Site
				{
					OFFSET 0.000000 0.000000 0.000000
				}
			}
		}
	}
}
MOTION
Frames: 4
Frame Time: 0.016667
0.053599 88.859886 3.107447 0.490481 0.055862 -6.497332 0.023754 -0.000539 5.886370 -1.012250 0.067046 0.861970 0.478071 -2.416792 3.829567 0.155030 -0.780500 1.929224 2.330515 0.848112 5.016849 0.371683 2.117863 -3.221864 -0.714533 -0.852149 -18.222401 0.000000 0.000000 0.000000 92.418694 -0.394880 9.707912 65.456573 -33.431271 5.091406 -0.130291 12.440493 22.353239 6.882370 13.743960 -6.458578 10.637670 -1.840800 39.870983 0.000000 0.000000 -25.919998 0.000000 0.000000 -18.000004 0.000000 0.000000 0.000000 12.845482 -0.000000 -9.527125 8.991838 0.000000 0.000000 8.991838 0.000000 0.000000 0.000000 0.000000 0.000000 11.286146 -0.000000 -11.044980 7.900302 0.000000 0.000000 7.900302 0.000000 0.000000 0.000000 0.000000 0.000000 11.199185 0.000000 -11.348525 7.839428 0.000000 0.000000 7.839428 0.000000 0.000000 0.000000 0.000000 0.000000 10.416969 0.000000 -12.591636 7.291878 0.000000 0.000000 7.291878 0.000000 0.000000 0.000000 0.000000 0.000000 0.000000 0.000000 0.000000 0.000000 0.000000 0.000000 -90.370071 0.051974 5.208683 -71.842018 19.306828 -7.574249 -0.664994 -8.642401 40.885647 -0.139946 -25.486511 -15.477552 -11.236528 1.888869 39.607231 0.000000 0.000000 -27.360001 0.000000 0.000000 -18.999998 0.000000 0.000000 0.000000 -16.692022 0.000000 -11.498048 -11.684413 0.000000 0.000000 -11.684413 0.000000 0.000000 0.000000 0.000000 0.000000 -15.977510 0.000000 -11.317391 -11.184259 0.000000 0.000000 -11.184259 0.000000 0.000000 0.000000 0.000000 0.000000 -18.180992 -0.000000 -10.528083 -12.726697 0.000000 0.000000 -12.726697 0.000000 0.000000 0.000000 0.000000 0.000000 -19.065912 -0.000000 -9.698054 -13.346139 0.000000 0.000000 -13.346139 0.000000 0.000000 0.000000 0.000000 0.000000 0.000000 0.000000 0.000000 0.000000 0.000000 0.000000 -1.045058 -10.518975 11.869204 -0.078405 -0.635030 3.758801 -2.197730 -7.901679 18.681496 -0.890004 0.828132 -18.870453 0.000000 0.000000 0.000000 0.000000 0.000000 0.000000 0.000000 0.000000 0.000000 -1.784023 -6.543907 7.474547 0.053202 0.398207 7.545935 3.843466 -1.785134 17.966772 0.194973 -0.390531 -20.817129 0.000000 0.000000 0.000000 0.000000 0.000000 0.000000 0.000000 0.000000 0.000000 
0.082110 88.236473 3.018706 -0.203311 -0.218314 -7.900235 1.328877 -0.196543 6.812061 -1.143886 0.169671 2.651890 0.643039 -1.673543 2.828069 -0.734188 -0.285177 3.386159 2.339828 0.952682 2.964183 0.933345 2.319107 -3.666222 -0.715023 -1.085474 -17.792707 0.000000 0.000000 0.000000 91.948151 -0.534572 9.641240 66.405182 -31.420378 4.542325 -0.204607 13.733678 23.366875 6.847829 12.259081 -5.271198 10.347880 -1.810381 39.889301 -0.000001 0.000026 -25.359774 0.000011 0.000044 -17.431763 0.000000 -0.000003 -0.000020 12.109217 0.109082 -8.961661 8.538727 -0.019207 -0.221716 8.642223 0.008313 -0.216549 -0.000026 0.000028 -0.000022 10.863585 0.038585 -10.279521 7.766885 -0.015591 -0.070836 7.876796 0.002598 -0.063248 0.000019 0.000021 0.000014 10.721857 -0.096303 -10.424147 7.754905 0.052118 0.022027 7.778443 0.007396 0.019327 -0.000015 -0.000005 0.000010 10.062039 -0.274973 -11.971311 7.414588 0.147141 -0.029811 7.320018 0.053437 0.000083 0.000099 -0.000005 0.000008 0.000000 0.000000 0.000000 0.000000 0.000000 0.000000 -88.805214 0.137646 6.335483 -71.343102 19.346533 -5.487627 -1.244503 -10.423902 40.656189 -0.026564 -23.638664 -14.992462 -10.861190 1.813887 39.629227 0.000004 0.000019 -26.717602 -0.000029 -0.000025 -18.378347 -0.000211 0.000002 0.000028 -16.471060 0.149782 -9.627123 -11.219038 0.008722 0.282451 -11.541513 0.033530 0.247816 0.000011 0.000150 -0.000006 -15.826119 0.073004 -10.339594 -11.017675 -0.004939 0.105540 -10.830422 0.012924 0.094204 -0.000242 -0.000046 -0.000036 -17.605936 -0.050977 -10.687028 -12.236792 0.027801 -0.183068 -12.108626 -0.012813 -0.117471 0.000418 0.000012 0.000006 -18.230658 -0.234967 -11.473800 -12.710045 0.032394 -0.391756 -12.684998 -0.040449 -0.331917 -0.000194 -0.000011 -0.000033 0.000000 0.000000 0.000000 0.000000 0.000000 0.000000 -0.761322 -10.276183 12.066154 -0.022277 -0.629360 4.758315 -2.449502 -8.665227 19.087467 -0.863479 0.857063 -18.772558 0.000000 0.000000 0.000000 0.000000 0.000000 0.000000 0.000000 0.000000 0.000000 -1.386901 -5.737833 8.646561 0.050916 0.423199 6.997707 3.573334 -0.652622 18.530409 0.311642 -0.492382 -20.949640 0.000000 0.000000 0.000000 0.000000 0.000000 0.000000 0.000000 0.000000 0.000000 
0.080944 88.219704 2.992520 -0.185614 -0.260247 -7.977243 1.272110 -0.175498 6.849062 -1.064932 0.160517 2.716938 0.545502 -1.673736 2.865302 -0.706972 -0.305862 3.404695 2.460871 0.854571 3.117375 0.905046 2.261616 -3.541943 -0.735232 -1.074514 -17.856619 0.000000 0.000000 0.000000 91.971230 -0.525726 9.665768 66.352493 -31.370743 4.743226 -0.227982 13.732987 23.072281 6.854303 12.104064 -5.443031 10.312597 -1.806287 39.909214 -0.000002 0.000045 -25.249338 0.000015 0.000038 -17.366911 0.000012 0.000004 -0.000033 12.048425 0.113168 -8.902653 8.478993 -0.023887 -0.202021 8.577034 0.004547 -0.197228 -0.000005 0.000041 -0.000017 10.810756 0.039219 -10.242297 7.713390 -0.017764 -0.061514 7.812241 0.000527 -0.055092 0.000015 0.000012 0.000002 10.725161 -0.096190 -10.426686 7.702658 0.054877 0.008515 7.714818 0.010335 0.009406 -0.000021 -0.000010 -0.000003 10.108411 -0.277379 -12.021246 7.393484 0.155338 -0.057281 7.295696 0.058614 -0.022697 0.000113 0.000006 0.000004 0.000000 0.000000 0.000000 0.000000 0.000000 0.000000 -88.820755 0.120053 6.330695 -71.255913 19.488424 -5.362420 -1.194202 -10.140217 40.507313 0.138311 -23.575939 -15.425867 -10.830379 1.807184 39.645538 0.000016 0.000023 -26.630100 -0.000039 -0.000013 -18.315847 -0.000331 0.000013 -0.000001 -16.346062 0.156068 -9.710848 -11.167252 0.002842 0.251272 -11.479156 0.028121 0.216462 0.000025 0.000097 0.000003 -15.677515 0.075181 -10.451158 -10.955194 -0.006958 0.091037 -10.771845 0.010740 0.082581 -0.000251 -0.000040 -0.000057 -17.431171 -0.048596 -10.851598 -12.162272 0.031425 -0.163246 -12.039804 -0.010049 -0.104342 0.000482 0.000017 0.000011 -18.069233 -0.224750 -11.698263 -12.659428 0.042540 -0.330273 -12.638904 -0.031813 -0.287001 -0.000171 0.000008 -0.000051 0.000000 0.000000 0.000000 0.000000 0.000000 0.000000 -0.771973 -10.317910 12.078058 -0.021673 -0.627293 4.764889 -2.439391 -8.539673 19.070492 -0.850645 0.860597 -18.784302 0.000000 0.000000 0.000000 0.000000 0.000000 0.000000 0.000000 0.000000 0.000000 -1.343773 -5.630796 8.682051 0.049014 0.414811 6.964626 3.554694 -0.719631 18.567911 0.315076 -0.493605 -20.955730 0.000000 0.000000 0.000000 0.000000 0.000000 0.000000 0.000000 0.000000 0.000000 
0.081360 88.209007 2.972459 -0.170545 -0.310995 -8.046371 1.229302 -0.153527 6.885713 -1.004912 0.152653 2.771147 0.487565 -1.665259 2.905276 -0.671919 -0.318135 3.390755 2.499200 0.783609 3.213696 0.888274 2.206119 -3.464982 -0.738493 -1.067510 -17.909546 0.000000 0.000000 0.000000 92.001213 -0.511388 9.703382 66.324646 -31.213724 4.859328 -0.251810 13.779659 22.826796 6.848338 12.001362 -5.550331 10.302744 -1.806074 39.913990 0.000000 0.000045 -25.203012 0.000013 0.000040 -17.345684 0.000012 0.000004 -0.000033 12.000646 0.114289 -8.913221 8.422529 -0.026290 -0.188868 8.509450 0.002642 -0.184199 -0.000005 0.000042 -0.000018 10.770401 0.039003 -10.260374 7.655954 -0.018879 -0.055449 7.749776 -0.000640 -0.049703 0.000015 0.000015 0.000004 10.730195 -0.095253 -10.451540 7.653100 0.055997 0.001112 7.661659 0.011964 0.003993 -0.000019 0.000020 -0.000002 10.130680 -0.275886 -12.051756 7.372409 0.158191 -0.068022 7.272647 0.059651 -0.031295 0.000119 0.000005 -0.000004 0.000000 0.000000 0.000000 0.000000 0.000000 0.000000 -88.823654 0.117862 6.331756 -71.261635 19.579836 -5.347138 -1.160417 -9.997228 40.392876 0.098282 -23.358025 -15.637633 -10.820881 1.806014 39.647972 0.000015 0.000023 -26.601294 -0.000043 -0.000014 -18.293797 -0.000444 0.000011 0.000021 -16.245022 0.157396 -9.734632 -11.093437 -0.001795 0.227969 -11.398205 0.024190 0.191955 0.000023 0.000053 0.000003 -15.546162 0.075554 -10.507464 -10.876643 -0.008698 0.080283 -10.695384 0.009007 0.073495 -0.000257 -0.000041 -0.000073 -17.264263 -0.045770 -10.952662 -12.074005 0.033930 -0.148612 -11.955295 -0.008164 -0.094245 0.000457 0.000017 0.000011 -17.909452 -0.216467 -11.854653 -12.591195 0.049308 -0.286687 -12.571692 -0.026224 -0.252384 -0.000162 0.000008 -0.000052 0.000000 0.000000 0.000000 0.000000 0.000000 0.000000 -0.793056 -10.306555 12.084085 -0.021254 -0.624790 4.780214 -2.438861 -8.432276 19.073107 -0.842513 0.861200 -18.797453 0.000000 0.000000 0.000000 0.000000 0.000000 0.000000 0.000000 0.000000 0.000000 -1.325006 -5.528026 8.727768 0.046496 0.405612 6.934360 3.554641 -0.704199 18.594992 0.316818 -0.492582 -20.954844 0.000000 0.000000 0.000000 0.000000 0.000000 0.000000 0.000000 0.000000 0.000000 
